# xmcd
#
# Track frame offsets: 
#        150
#        6165
#        18987
#        31733
#        47380
#        55386
#        69615
#        85783
#        106569
#        121516
#        134145
#
# Disc length: 1967 seconds
#
# Revision: 4
# Processed by: cddbd v1.5.2PL0 Copyright (c) Steve Scherf et al.
# Submitted via: ExactAudioCopy v0.99pb5
#
DISCID=7f07ad0b
DTITLE=At The Drive-In - Acrobatic Tenement
DYEAR=1996
DGENRE=Alt. Rock
TTITLE0=Star Slight
TTITLE1=Schaffino
TTITLE2=Ebroglio
TTITLE3=Initiation
TTITLE4=Communication Drive-In
TTITLE5=Skips On The Record
TTITLE6=Paid Vacation Time
TTITLE7=Ticklish
TTITLE8=Blue Tag
TTITLE9=Coating Of Arms
TTITLE10=Porfirio Diaz
EXTD=
EXTT0=
EXTT1=
EXTT2=
EXTT3=
EXTT4=
EXTT5=
EXTT6=
EXTT7=
EXTT8=
EXTT9=
EXTT10=
PLAYORDER=
